<svg xmlns="http://www.w3.org/2000/svg" fill="none" stroke="currentColor" stroke-width="1.7" stroke-linecap="round" stroke-linejoin="round">
<symbol id="toolbox" viewBox="0 0 24 24"><rect x="3" y="7" width="18" height="14" rx="2"/><path d="M8 7V5a2 2 0 0 1 2-2h4a2 2 0 0 1 2 2v2M3 13h18M8 11v4m8-4v4"/></symbol>
<symbol id="arrow-up-right" viewBox="0 0 24 24"><path d="M6 18 18 6M6 6h12v12"/></symbol>
<symbol id="arrow-right" viewBox="0 0 24 24"><path d="M4 12h16m-6-6 6 6-6 6"/></symbol>
<symbol id="arrow-down" viewBox="0 0 24 24"><path d="M12 4v16m-6-6 6 6 6-6"/></symbol>
<symbol id="arrow-left" viewBox="0 0 24 24"><path d="M20 12H4m6-6-6 6 6 6"/></symbol>
<symbol id="check" viewBox="0 0 24 24"><path d="m5 12 4 4L19 6"/></symbol>
<symbol id="search" viewBox="0 0 24 24"><circle cx="10.5" cy="10.5" r="6.5"/><path d="m16 16 4.5 4.5"/></symbol>
<symbol id="stretch" viewBox="0 0 24 24"><rect x="6" y="6" width="12" height="12" rx="1"/><path d="M1 12h7m-4-3-3 3 3 3m12-3h7m-3-3 3 3-3 3M12 1v4m0 14v4"/></symbol>
<symbol id="text" viewBox="0 0 24 24"><path d="M3 5h12M9 5v14M6 19h6m3-7h7m-3.5 0v7M17 19h3"/></symbol>
<symbol id="markdown" viewBox="0 0 24 24"><rect x="2" y="5" width="20" height="14" rx="2"/><path d="M5 15V9l3 3 3-3v6m6-6v6m-3-3 3 3 3-3"/></symbol>
<symbol id="code" viewBox="0 0 24 24"><path d="m7 6-5 6 5 6m10-12 5 6-5 6M14 3l-4 18"/></symbol>
<symbol id="key" viewBox="0 0 24 24"><circle cx="8" cy="8" r="5"/><path d="m11.5 11.5 9 9m-3-3 3-3m-6 0 3-3"/><circle cx="6.5" cy="6.5" r=".5"/></symbol>
<symbol id="qr" viewBox="0 0 24 24"><rect x="3" y="3" width="6" height="6" rx=".5"/><rect x="15" y="3" width="6" height="6" rx=".5"/><rect x="3" y="15" width="6" height="6" rx=".5"/><path d="M15 15h3v3h3v3h-6v-3m6-3v-3m-9 0v3m-9-3h5m4-9v5"/></symbol>
<symbol id="roulette" viewBox="0 0 24 24"><circle cx="12" cy="12" r="9"/><circle cx="12" cy="12" r="2"/><path d="M12 3v7m2 2h7m-9 2v7M3 12h7m3.5-1.5L18 6m-4.5 7.5L18 18m-7.5-4.5L6 18m4.5-7.5L6 6"/></symbol>
<symbol id="sparkles" viewBox="0 0 24 24"><path d="m12 3 2.5 6.5L21 12l-6.5 2.5L12 21l-2.5-6.5L3 12l6.5-2.5L12 3ZM20 2v4m-2-2h4"/></symbol>
<symbol id="sliders" viewBox="0 0 24 24"><path d="M4 7h3m4 0h9M4 17h9m4 0h3"/><circle cx="9" cy="7" r="2"/><circle cx="15" cy="17" r="2"/></symbol>
<symbol id="upload" viewBox="0 0 24 24"><path d="M12 16V3m-5 5 5-5 5 5M4 15v5a1 1 0 0 0 1 1h14a1 1 0 0 0 1-1v-5"/></symbol>
<symbol id="download" viewBox="0 0 24 24"><path d="M12 3v13m-5-5 5 5 5-5M4 16v4a1 1 0 0 0 1 1h14a1 1 0 0 0 1-1v-4"/></symbol>
<symbol id="image" viewBox="0 0 24 24"><rect x="3" y="3" width="18" height="18" rx="2"/><circle cx="8" cy="8" r="1.5"/><path d="m21 15-5-5L5 21"/></symbol>
<symbol id="shield" viewBox="0 0 24 24"><path d="m12 3 8 3v6c0 5-8 9-8 9s-8-4-8-9V6l8-3Z"/><path d="m8 12 3 3 5-6"/></symbol>
<symbol id="reset" viewBox="0 0 24 24"><path d="M3 10a9 9 0 1 1 2 8M3 4v6h6"/></symbol>
<symbol id="link" viewBox="0 0 24 24"><path d="m10 14 4-4m-5-2 3-3a5 5 0 0 1 7 7l-3 3m-1 1-3 3a5 5 0 0 1-7-7l3-3"/></symbol>
</svg>
